<svg xmlns="http://www.w3.org/2000/svg" xmlns:xlink="http://www.w3.org/1999/xlink" viewBox="0 0 45.2 29.1" height="110" width="171"><defs><linearGradient y2="1095.7" x2="-448.3" y1="1014.9" x1="-302.2" gradientTransform="rotate(-172 19.9 1235.7)" gradientUnits="userSpaceOnUse" id="c" xlink:href="#a"/><linearGradient id="a"><stop offset="0" stop-color="#bcbcbc"/><stop offset="1" stop-color="#f2f2f2" stop-opacity="0"/></linearGradient><linearGradient y2="1095.6" x2="-400.9" y1="1039.4" x1="-403.6" gradientTransform="rotate(131.2 -57.2 1463.1)" gradientUnits="userSpaceOnUse" id="d" xlink:href="#a"/><linearGradient gradientTransform="translate(801.6 349.4)" y2="1055.4" x2="-489.7" y1="1127.3" x1="-494.4" gradientUnits="userSpaceOnUse" id="e" xlink:href="#a"/><filter height="1.1" y="-.1" width="1.1" x="0" id="b" color-interpolation-filters="sRGB"><feGaussianBlur stdDeviation="3.9"/></filter></defs><g transform="matrix(.13725 0 0 .13725 -26 -181.2)"><rect y="1325.4" x="253.8" height="201.6" width="201.6" ry="16.3" fill="#1976d2" stroke="#424242" stroke-width="7" stroke-linecap="round" paint-order="markers fill stroke"/><path d="M420 1409c30 5 24.4 39.1 24.9 22.6-3.8-20.9-30.3-27.3-47-21.3a44.6 44.6 0 00-26 31.4c-65.2 52.4-173.3-8.5-170-52 115.6 8.5 135.5 5 233.5-19.6 41.8-10.5 85.6 23.3 67.8 76a85 85 0 01-39.9 45.9c-95.1 45.2-122.4-94-43.2-83z" fill="#202020" paint-order="markers fill stroke" filter="url(#b)" transform="rotate(-6.5 354.5 1434.6)"/><path d="M414.9 1398c30.2 1.5 28.6 36 27.2 19.6-6.1-20.3-33.2-23.7-49.1-15.9a44.6 44.6 0 00-22.3 34.2c-59 59.4-173.1 11-174.8-32.6 115.9-4.5 135.2-10.2 229.9-45.7 40.3-15.2 87.6 13.5 75.9 67.8a85 85 0 01-34.5 50.2c-89.4 55.6-132.3-79.7-52.3-77.6z" fill="#f9f9f9" stroke="#8d8d8d" stroke-width="5" stroke-linecap="round" paint-order="markers fill stroke"/><path d="M446 1468.4c-1 12-20.7 30.6-38.7 25.3-20.3-6-39-37.6-36.9-57.3 28.9-49 59.2-27.7 28.9-13.7-16.2 7.4-5.4 52.8 16.3 44.3 28.1-16.3 32.1-23.2 30.4 1.4z" fill="url(#c)" transform="rotate(-6.5 354.5 1434.6)"/><path d="M503.4 1411.9c20 47.6-63.3 115.4-107.7 73.5 0-34.3 58.6-5.5 68-45.5.5-62.4 39-40.6 39.7-28z" fill="url(#d)" transform="rotate(-6.5 354.5 1434.6)"/><path d="M210.3 1390.2s45.6 42.1 87.3 41.1c41.6-1 85.7-24.8 85.7-24.8l-12.8 31.2c-57.2 48.7-180.5-4.3-160.2-47.5z" fill="url(#e)" transform="rotate(-6.5 354.5 1434.6)"/><path d="M414.9 1398c30.2 1.5 28.6 36 27.2 19.6-6.1-20.3-33.2-23.7-49.1-15.9a44.6 44.6 0 00-22.3 34.2c-59 59.4-173.1 11-174.8-32.6 115.9-4.5 135.2-10.2 229.9-45.7 40.3-15.2 87.6 13.5 75.9 67.8a85 85 0 01-34.5 50.2c-89.4 55.6-132.3-79.7-52.3-77.6z" fill="none" stroke="#424242" stroke-width="8.6" stroke-linecap="round" paint-order="markers fill stroke"/></g></svg>
