<?xml version="1.0" encoding="UTF-8" standalone="no"?>
<svg
   xmlns:dc="http://purl.org/dc/elements/1.1/"
   xmlns:cc="http://creativecommons.org/ns#"
   xmlns:rdf="http://www.w3.org/1999/02/22-rdf-syntax-ns#"
   xmlns:svg="http://www.w3.org/2000/svg"
   xmlns="http://www.w3.org/2000/svg"
   xmlns:xlink="http://www.w3.org/1999/xlink"
   xmlns:sodipodi="http://sodipodi.sourceforge.net/DTD/sodipodi-0.dtd"
   xmlns:inkscape="http://www.inkscape.org/namespaces/inkscape"
   inkscape:export-ydpi="141.99716"
   inkscape:export-xdpi="141.99716"
   inkscape:export-filename="/Users/amartinez/Documents/experiments/nuxt/voicemail/camati_logo.png"
   sodipodi:docname="camati_logo_favicon.svg"
   inkscape:version="1.0 (4035a4f, 2020-05-01)"
   id="svg1047"
   version="1.1"
   viewBox="0 0 68.791668 68.791663"
   height="260"
   width="260">
  <defs
     id="defs1041">
    <filter
       height="1.1424862"
       y="-0.071243122"
       width="1.0619721"
       x="-0.030986069"
       id="filter934"
       style="color-interpolation-filters:sRGB"
       inkscape:collect="always">
      <feGaussianBlur
         id="feGaussianBlur936"
         stdDeviation="3.9442037"
         inkscape:collect="always" />
    </filter>
    <linearGradient
       y2="1095.6677"
       x2="-448.25775"
       y1="1014.8935"
       x1="-302.16824"
       gradientTransform="rotate(-171.9558,19.861929,1235.7391)"
       gradientUnits="userSpaceOnUse"
       id="linearGradient1062"
       xlink:href="#linearGradient1169"
       inkscape:collect="always" />
    <linearGradient
       inkscape:collect="always"
       id="linearGradient1169">
      <stop
         style="stop-color:#bcbcbc;stop-opacity:1"
         offset="0"
         id="stop1165" />
      <stop
         style="stop-color:#f2f2f2;stop-opacity:0;"
         offset="1"
         id="stop1167" />
    </linearGradient>
    <linearGradient
       y2="1095.585"
       x2="-400.9277"
       y1="1039.425"
       x1="-403.56961"
       gradientTransform="rotate(131.23246,-57.208325,1463.1027)"
       gradientUnits="userSpaceOnUse"
       id="linearGradient1064"
       xlink:href="#linearGradient1169"
       inkscape:collect="always" />
    <linearGradient
       gradientTransform="translate(801.59221,349.41746)"
       y2="1055.4117"
       x2="-489.65717"
       y1="1127.2744"
       x1="-494.38071"
       gradientUnits="userSpaceOnUse"
       id="linearGradient1066"
       xlink:href="#linearGradient1169"
       inkscape:collect="always" />
  </defs>
  <sodipodi:namedview
     inkscape:window-maximized="0"
     inkscape:window-y="0"
     inkscape:window-x="1920"
     inkscape:window-height="1080"
     inkscape:window-width="1920"
     units="px"
     showgrid="false"
     inkscape:document-rotation="0"
     inkscape:current-layer="g1121"
     inkscape:document-units="mm"
     inkscape:cy="108.01923"
     inkscape:cx="171.49426"
     inkscape:zoom="2.1034848"
     inkscape:pageshadow="2"
     inkscape:pageopacity="0.0"
     borderopacity="1.0"
     bordercolor="#666666"
     pagecolor="#ffffff"
     id="base" />
  <metadata
     id="metadata1044">
    <rdf:RDF>
      <cc:Work
         rdf:about="">
        <dc:format>image/svg+xml</dc:format>
        <dc:type
           rdf:resource="http://purl.org/dc/dcmitype/StillImage" />
        <dc:title></dc:title>
      </cc:Work>
    </rdf:RDF>
  </metadata>
  <g
     id="layer1"
     inkscape:groupmode="layer"
     inkscape:label="Layer 1">
    <g
       transform="matrix(0.20440592,0,0,0.20440592,-82.972458,9.3155283)"
       id="g1121">
      <g
         transform="matrix(1.0522042,0,0,1.0522042,206.9361,-1374.0697)"
         id="g1797">
        <g
           id="g1605">
          <rect
             y="1325.3779"
             x="253.75156"
             height="201.55582"
             width="201.55582"
             id="rect1038"
             style="fill:#1976d2;fill-opacity:1;stroke:#424242;stroke-width:6.9648;stroke-linecap:round;stroke-miterlimit:4;stroke-dasharray:none;stroke-opacity:1;paint-order:markers fill stroke"
             ry="16.30188" />
          <g
             transform="rotate(-6.4763989,354.52946,1434.6226)"
             id="g1931">
            <path
               sodipodi:nodetypes="ccsccsccc"
               d="m 420.05594,1409.056 c 29.88291,4.8717 24.37901,39.0589 24.82276,22.5386 -3.76587,-20.8884 -30.2523,-27.3022 -47.02226,-21.3267 -14.72873,5.2481 -23.79818,20.8758 -25.93684,31.4016 -65.26696,52.3863 -173.29657,-8.477 -170.06684,-52.0643 115.68728,8.6229 135.52819,5.119 233.57759,-19.5079 41.80844,-10.501 85.53319,23.3413 67.7894,75.9925 -6.97626,18.8976 -20.99914,36.1533 -39.88849,45.9103 -95.15358,45.2058 -122.47004,-94.0754 -43.27532,-82.9441 z"
               style="fill:#202020;fill-opacity:1;stroke:none;stroke-width:5;stroke-linecap:round;stroke-miterlimit:4;stroke-dasharray:none;stroke-opacity:1;paint-order:markers fill stroke;filter:url(#filter934)"
               id="path1048" />
            <g
               id="g1922">
              <path
                 sodipodi:nodetypes="ccsccsccc"
                 d="m 418.62451,1405.0603 c 29.88291,4.8717 24.37901,39.0589 24.82276,22.5386 -3.76587,-20.8884 -30.2523,-27.3022 -47.02226,-21.3267 -14.72873,5.2481 -23.79818,20.8758 -25.93684,31.4016 -65.26696,52.3863 -173.29657,-8.477 -170.06684,-52.0643 115.68728,8.6229 135.52819,5.119 233.57759,-19.5079 41.80844,-10.501 85.53319,23.3413 67.7894,75.9925 -6.97626,18.8976 -20.99914,36.1533 -39.88849,45.9103 -95.15358,45.2058 -122.47004,-94.0754 -43.27532,-82.9441 z"
                 style="fill:#f9f9f9;fill-opacity:1;stroke:#8d8d8d;stroke-width:5;stroke-linecap:round;stroke-miterlimit:4;stroke-dasharray:none;stroke-opacity:1;paint-order:markers fill stroke"
                 id="path1050" />
              <path
                 style="fill:url(#linearGradient1062);fill-opacity:1;stroke:none;stroke-width:0.264583px;stroke-linecap:butt;stroke-linejoin:miter;stroke-opacity:1"
                 d="m 445.95581,1468.3865 c -0.99473,12.094 -20.60805,30.6104 -38.6918,25.2689 -20.21626,-5.9713 -38.97502,-37.5967 -36.84316,-57.2804 28.87151,-49.0209 59.18688,-27.6373 28.86246,-13.7201 -16.20923,7.4392 -5.40076,52.8001 16.29053,44.2987 28.13345,-16.2188 32.17011,-23.2019 30.38197,1.4329 z"
                 id="path1052"
                 sodipodi:nodetypes="cscscc" />
              <path
                 sodipodi:nodetypes="cccc"
                 id="path1054"
                 d="m 503.4251,1411.901 c 19.94576,47.6436 -63.35319,115.4304 -107.77162,73.5227 0.0525,-34.3711 58.6787,-5.5533 68.12085,-45.4843 0.46396,-62.4588 38.8927,-40.6007 39.65077,-28.0384 z"
                 style="fill:url(#linearGradient1064);fill-opacity:1;stroke:none;stroke-width:0.264583px;stroke-linecap:butt;stroke-linejoin:miter;stroke-opacity:1" />
              <path
                 style="fill:url(#linearGradient1066);fill-opacity:1;stroke:none;stroke-width:0.264583px;stroke-linecap:butt;stroke-linejoin:miter;stroke-opacity:1"
                 d="m 210.33612,1390.1867 c 0,0 45.59562,42.1264 87.22638,41.1352 41.63079,-0.9912 85.73958,-24.7803 85.73958,-24.7803 l -12.8139,31.1322 c -57.14902,48.7448 -180.51858,-4.2686 -160.15206,-47.4871 z"
                 id="path1056"
                 sodipodi:nodetypes="csccc" />
              <path
                 id="path1058"
                 style="fill:none;fill-opacity:1;stroke:#424242;stroke-width:8.59638;stroke-linecap:round;stroke-miterlimit:4;stroke-dasharray:none;stroke-opacity:1;paint-order:markers fill stroke"
                 d="m 418.62451,1405.0603 c 29.88291,4.8717 24.37901,39.0589 24.82276,22.5386 -3.76587,-20.8884 -30.2523,-27.3022 -47.02226,-21.3267 -14.72873,5.2481 -23.79818,20.8758 -25.93684,31.4016 -65.26696,52.3863 -173.29657,-8.477 -170.06684,-52.0643 115.68728,8.6229 135.52819,5.119 233.57759,-19.5079 41.80844,-10.501 85.53319,23.3413 67.7894,75.9925 -6.97626,18.8976 -20.99914,36.1533 -39.88849,45.9103 -95.15358,45.2058 -122.47004,-94.0754 -43.27532,-82.9441 z"
                 sodipodi:nodetypes="ccsccsccc" />
            </g>
          </g>
        </g>
      </g>
    </g>
  </g>
</svg>
